REM DIRINDEX 1\2,1\3
REM DIRNAME cjc052,folder01,folder02
TITLE ""
FILE "Disk1Track33.mp3" MP3
  TRACK 01 AUDIO
    TITLE "2:cjc052_0221"
    INDEX 01 00:00:00
  TRACK 02 AUDIO
    TITLE "2:cjc052_0222"
    INDEX 01 00:07:11
  TRACK 03 AUDIO
    TITLE "2:cjc052_0223"
    INDEX 01 00:15:17
  TRACK 04 AUDIO
    TITLE "2:cjc052_0224"
    INDEX 01 00:21:39
  TRACK 05 AUDIO
    TITLE "2:cjc052_0225"
    INDEX 01 00:28:47
  TRACK 06 AUDIO
    TITLE "0:"
    INDEX 01 00:40:73
